<svg version="1.1" viewBox="0.0 0.0 960.0 540.0" fill="none" stroke="none" stroke-linecap="square" stroke-miterlimit="10" xmlns:xlink="http://www.w3.org/1999/xlink" xmlns="http://www.w3.org/2000/svg"><clipPath id="gf5243d7071_0_79.0"><path d="m0 0l960.0 0l0 540.0l-960.0 0l0 -540.0z" clip-rule="nonzero"/></clipPath><g clip-path="url(#gf5243d7071_0_79.0)"><path fill="#a6a6a6" d="m0 0l960.0 0l0 540.0l-960.0 0z" fill-rule="evenodd"/><g filter="url(#shadowFilter-gf5243d7071_0_79.1)"><use xlink:href="#gf5243d7071_0_79.1" transform="matrix(1.0 0.0 0.0 1.0 0.0 2.0)"/></g><defs><filter id="shadowFilter-gf5243d7071_0_79.1" filterUnits="userSpaceOnUse"><feGaussianBlur in="SourceAlpha" stdDeviation="2.0" result="blur"/><feComponentTransfer in="blur" color-interpolation-filters="sRGB"><feFuncR type="linear" slope="0" intercept="0.0"/><feFuncG type="linear" slope="0" intercept="0.0"/><feFuncB type="linear" slope="0" intercept="0.0"/><feFuncA type="linear" slope="0.5" intercept="0"/></feComponentTransfer></filter></defs><g id="gf5243d7071_0_79.1"><path fill="#000000" fill-opacity="0.0" d="m927.6693 30.149628l-895.3386 0l0 480.8819l895.3386 0z" fill-rule="evenodd"/><path stroke="#f5f5f5" stroke-width="3.0" stroke-miterlimit="800.0" stroke-linecap="butt" d="m927.6693 30.149628l-895.3386 0l0 480.8819l895.3386 0z" fill-rule="evenodd"/></g><g filter="url(#shadowFilter-gf5243d7071_0_79.2)"><use xlink:href="#gf5243d7071_0_79.2" transform="matrix(1.0 0.0 0.0 1.0 0.0 2.0)"/></g><defs><filter id="shadowFilter-gf5243d7071_0_79.2" filterUnits="userSpaceOnUse"><feGaussianBlur in="SourceAlpha" stdDeviation="2.0" result="blur"/><feComponentTransfer in="blur" color-interpolation-filters="sRGB"><feFuncR type="linear" slope="0" intercept="0.0"/><feFuncG type="linear" slope="0" intercept="0.0"/><feFuncB type="linear" slope="0" intercept="0.0"/><feFuncA type="linear" slope="0.5" intercept="0"/></feComponentTransfer></filter></defs><g id="gf5243d7071_0_79.2"><path fill="#f5f5f5" d="m371.83203 13.960629l216.34644 0l0 33.732285l-216.34644 0z" fill-rule="evenodd"/><path fill="#37474f" d="m419.82166 24.09052l1.1875 0l0 -3.78125l1.40625 0q0.59375 0.078125 0.078125 0.4375l0 3.34375l2.078125 0l0 1.40625l-2.078125 0l0 4.09375l1.921875 -0.75l0.375 1.265625l-2.296875 0.96875l0 6.374998l-1.484375 0l0 -5.859373l-2.3125 0.7343731q-0.0625 0.53125 -0.359375 0.234375l-0.53125 -1.6406231l3.203125 -0.890625l0 -4.53125l-1.265625 0q-0.15625 1.421875 -0.59375 2.75l-1.40625 -0.515625q0.890625 -2.59375 0.890625 -5.71875l1.484375 0.21875q0.21875 0.234375 -0.15625 0.453125l-0.140625 1.40625zm14.46875 -0.140625l-0.078125 9.124998q0 3.9375 -2.21875 3.9375l-2.15625 0l-0.296875 -1.640625l1.859375 0q1.328125 0.15625 1.328125 -2.296875l0.078125 -7.718748l-0.8125 0q0.0625 6.53125 -6.46875 12.031248l-0.953125 -1.34375q5.484375 -4.078123 6.0 -10.687498l-1.1875 0q-0.296875 4.53125 -4.515625 8.015623l-1.046875 -1.265625q3.71875 -2.890623 4.15625 -6.749998l-1.1875 0q-0.8125 2.0 -2.078125 3.40625l-1.265625 -0.890625q2.609375 -3.1875 3.203125 -7.34375l1.546875 0.296875q0.296875 0.296875 -0.21875 0.375q-0.21875 1.265625 -0.671875 2.75l6.984375 0zm8.75 8.906248q-2.890625 1.03125 -5.40625 1.703125q-0.234375 0.59375 -0.453125 0.21875l-0.515625 -1.703125l2.59375 -0.515625l0 -4.093748l-2.0 0l0 -1.40625l2.0 0l0 -3.9375l-2.21875 0l0 -1.40625l5.9375 0l0 1.40625l-2.234375 0l0 3.9375l2.0 0l0 1.40625l-2.0 0l0 3.718748q0.59375 -0.078125 2.15625 -0.5937481l0.140625 1.2656231zm5.875 -3.499998l0 2.15625l4.15625 0l0 1.4062481l-4.15625 0l0 2.3125l4.890625 0l0 1.40625l-11.796875 0l0 -1.40625l5.640625 0l0 -2.3125l-4.015625 0l0 -1.4062481l4.015625 0l0 -2.15625l-2.671875 0l0 0.96875l-1.265625 0l0 -9.125l9.203125 0l0 8.828125l-1.265625 0l0 -0.671875l-2.734375 0zm2.734375 -3.40625l-2.734375 0l0 2.21875l2.734375 0l0 -2.21875zm0 -3.5625l-2.734375 0l0 2.375l2.734375 0l0 -2.375zm-4.0 2.375l0 -2.375l-2.671875 0l0 2.375l2.671875 0zm0 1.1875l-2.671875 0l0 2.21875l2.671875 0l0 -2.21875zm17.0 5.78125q1.546875 1.4843731 2.515625 2.609373l-1.484375 1.328125q-2.8125 -3.34375 -6.453125 -6.015623l1.03125 -1.328125q1.34375 0.8125 2.96875 2.296875q2.234375 -2.21875 4.53125 -5.484375l-11.65625 0.515625l-0.296875 -1.859375l13.0 -0.296875l0.734375 -0.21875l1.109375 1.1875q0.375 0.59375 -0.296875 0.515625q-1.84375 2.453125 -5.703125 6.75zm9.722656 2.828123q8.078125 -1.78125 12.171875 -8.390623l1.328125 1.34375q-3.78125 6.078123 -11.71875 8.609373q-0.234375 0.890625 -0.75 0.078125l-1.03125 -1.640625zm-0.53125 -8.984373q1.859375 0.96875 3.796875 2.375l-1.1875 1.5625q-2.234375 -1.640625 -3.71875 -2.375l1.109375 -1.5625zm2.078125 -4.375q2.015625 1.109375 3.796875 2.375l-1.046875 1.5625q-2.0 -1.421875 -3.703125 -2.375l0.953125 -1.5625zm28.429688 5.9375q-3.9375 8.156248 -13.203125 8.609373q-0.375 0.96875 -0.75 0.15625l-0.59375 -1.9375q9.65625 -0.21875 12.984375 -7.937498l1.5625 1.109375zm-10.46875 0q-2.0 -1.859375 -3.78125 -3.046875l1.265625 -1.5625q1.5625 0.96875 3.9375 3.203125l-1.421875 1.40625zm28.652344 7.343748q-4.53125 -2.812498 -7.046875 -7.203123l0 4.6875l3.046875 0l0 1.4062481l-3.046875 0l0 4.015625l-1.484375 0l0 -4.015625l-2.890625 0l0 -1.4062481l2.890625 0l0 -4.6875q-2.15625 4.749998 -6.984375 7.578123l-0.8125 -1.5625q5.046875 -2.749998 7.203125 -8.015623l-6.453125 0l0 -1.40625l7.046875 0l0 -3.34375l1.40625 0q0.59375 0.078125 0.078125 0.453125l0 2.890625l7.125 0l0 1.40625l-6.609375 0q2.53125 4.53125 7.34375 7.499998l-0.8125 1.703125zm6.90625 -1.5625q3.640625 -3.328123 5.34375 -7.421873l-4.671875 0l0 -1.40625l5.046875 0l0 -3.703125l1.40625 0q0.59375 0.0625 0.078125 0.4375l0 3.265625l5.34375 0l0 1.40625l-4.90625 0q1.1875 3.5625 5.34375 7.421873l-1.03125 1.484375q-3.203125 -3.187498 -4.75 -6.453123l0 4.312498l2.140625 0l0 1.40625l-2.140625 0l0 3.640625l-1.484375 0l0 -3.640625l-1.9375 0l0 -1.40625l1.9375 0l0 -4.312498q-1.78125 3.9375 -4.609375 6.390623l-1.109375 -1.421875zm0.59375 -11.640623q-0.375 1.921875 -1.046875 3.625q0.59375 0.234375 0 0.53125l0 12.015623l-1.484375 0l0 -9.281248q-0.515625 1.125 -1.328125 1.9375l-1.046875 -1.34375q2.53125 -3.40625 3.5 -8.453125l1.625 0.59375q0.375 0.296875 -0.21875 0.375z" fill-rule="nonzero"/></g><g filter="url(#shadowFilter-gf5243d7071_0_79.3)"><use xlink:href="#gf5243d7071_0_79.3" transform="matrix(1.0 0.0 0.0 1.0 0.0 2.0)"/></g><defs><filter id="shadowFilter-gf5243d7071_0_79.3" filterUnits="userSpaceOnUse"><feGaussianBlur in="SourceAlpha" stdDeviation="2.0" result="blur"/><feComponentTransfer in="blur" color-interpolation-filters="sRGB"><feFuncR type="linear" slope="0" intercept="0.0"/><feFuncG type="linear" slope="0" intercept="0.0"/><feFuncB type="linear" slope="0" intercept="0.0"/><feFuncA type="linear" slope="0.5" intercept="0"/></feComponentTransfer></filter></defs><g id="gf5243d7071_0_79.3"><path fill="#f5f5f5" d="m82.47769 434.86877l795.0552 0l0 44.53543l-795.0552 0z" fill-rule="evenodd"/><path fill="#37474f" d="m475.59644 462.22836q-1.53125 0 -2.453125 -0.59375q-0.90625 -0.609375 -1.296875 -1.71875q-0.390625 -1.109375 -0.390625 -2.59375l0 -5.734375q0 -1.484375 0.40625 -2.5625q0.40625 -1.078125 1.296875 -1.640625q0.90625 -0.5625 2.4375 -0.5625q1.53125 0 2.421875 0.578125q0.90625 0.578125 1.296875 1.640625q0.40625 1.0625 0.40625 2.546875l0 5.75q0 1.46875 -0.40625 2.578125q-0.390625 1.09375 -1.296875 1.703125q-0.890625 0.609375 -2.421875 0.609375zm0 -1.671875q0.84375 0 1.265625 -0.34375q0.4375 -0.34375 0.578125 -0.96875q0.15625 -0.625 0.15625 -1.453125l0 -6.625q0 -0.84375 -0.15625 -1.453125q-0.140625 -0.609375 -0.578125 -0.921875q-0.421875 -0.328125 -1.265625 -0.328125q-0.828125 0 -1.265625 0.328125q-0.4375 0.3125 -0.59375 0.921875q-0.15625 0.609375 -0.15625 1.453125l0 6.625q0 0.828125 0.15625 1.453125q0.15625 0.625 0.59375 0.96875q0.4375 0.34375 1.265625 0.34375zm9.75885 1.671875q-1.296875 0 -2.171875 -0.5625q-0.859375 -0.5625 -1.3125 -1.546875q-0.453125 -0.984375 -0.515625 -2.296875l1.859375 -0.5q0.0625 0.796875 0.25 1.546875q0.203125 0.75 0.640625 1.21875q0.453125 0.46875 1.25 0.46875q0.828125 0 1.25 -0.453125q0.421875 -0.453125 0.421875 -1.3125q0 -1.03125 -0.46875 -1.65625q-0.46875 -0.625 -1.1875 -1.25l-2.53125 -2.234375q-0.75 -0.65625 -1.109375 -1.421875q-0.34375 -0.78125 -0.34375 -1.921875q0 -1.65625 0.953125 -2.5625q0.953125 -0.921875 2.59375 -0.921875q0.890625 0 1.5625 0.234375q0.6875 0.21875 1.140625 0.703125q0.46875 0.484375 0.734375 1.234375q0.265625 0.734375 0.359375 1.71875l-1.78125 0.484375q-0.0625 -0.75 -0.234375 -1.375q-0.15625 -0.625 -0.578125 -1.0q-0.421875 -0.390625 -1.203125 -0.390625q-0.78125 0 -1.21875 0.421875q-0.4375 0.421875 -0.4375 1.25q0 0.6875 0.21875 1.140625q0.234375 0.4375 0.765625 0.90625l2.546875 2.234375q0.859375 0.75 1.515625 1.796875q0.65625 1.03125 0.65625 2.4375q0 1.125 -0.46875 1.9375q-0.46875 0.8125 -1.28125 1.25q-0.8125 0.421875 -1.875 0.421875z" fill-rule="nonzero"/></g><g filter="url(#shadowFilter-gf5243d7071_0_79.4)"><use xlink:href="#gf5243d7071_0_79.4" transform="matrix(1.0 0.0 0.0 1.0 0.0 2.0)"/></g><defs><filter id="shadowFilter-gf5243d7071_0_79.4" filterUnits="userSpaceOnUse"><feGaussianBlur in="SourceAlpha" stdDeviation="2.0" result="blur"/><feComponentTransfer in="blur" color-interpolation-filters="sRGB"><feFuncR type="linear" slope="0" intercept="0.0"/><feFuncG type="linear" slope="0" intercept="0.0"/><feFuncB type="linear" slope="0" intercept="0.0"/><feFuncA type="linear" slope="0.5" intercept="0"/></feComponentTransfer></filter></defs><g id="gf5243d7071_0_79.4"><path fill="#ffd966" d="m82.47769 378.86877l795.0552 0l0 44.53543l-795.0552 0z" fill-rule="evenodd"/><path fill="#37474f" d="m304.081 406.0565l0 -15.109375l3.28125 0q1.6875 0 2.65625 0.515625q0.984375 0.515625 1.40625 1.546875q0.421875 1.015625 0.421875 2.546875l0 5.5625q0 1.59375 -0.421875 2.703125q-0.421875 1.09375 -1.359375 1.671875q-0.9375 0.5625 -2.53125 0.5625l-3.453125 0zm2.109375 -1.515625l1.203125 0q1.15625 0 1.640625 -0.4375q0.484375 -0.453125 0.578125 -1.3125q0.109375 -0.859375 0.109375 -2.0625l0 -4.921875q0 -1.171875 -0.15625 -1.890625q-0.140625 -0.734375 -0.65625 -1.0625q-0.5 -0.34375 -1.578125 -0.34375l-1.140625 0l0 12.03125zm10.519348 1.671875q-1.1875 0 -1.875 -0.484375q-0.6875 -0.5 -0.984375 -1.390625q-0.28125 -0.890625 -0.28125 -2.109375l0 -3.125q0 -1.21875 0.28125 -2.109375q0.296875 -0.90625 0.984375 -1.390625q0.6875 -0.484375 1.875 -0.484375q1.203125 0 1.875 0.484375q0.6875 0.484375 0.96875 1.390625q0.296875 0.890625 0.296875 2.109375l0 3.125q0 1.21875 -0.296875 2.109375q-0.28125 0.890625 -0.96875 1.390625q-0.671875 0.484375 -1.875 0.484375zm0 -1.484375q0.578125 0 0.8125 -0.328125q0.234375 -0.34375 0.28125 -0.890625q0.046875 -0.546875 0.046875 -1.140625l0 -3.390625q0 -0.609375 -0.046875 -1.140625q-0.046875 -0.546875 -0.28125 -0.890625q-0.234375 -0.34375 -0.8125 -0.34375q-0.578125 0 -0.828125 0.34375q-0.234375 0.34375 -0.28125 0.890625q-0.046875 0.53125 -0.046875 1.140625l0 3.390625q0 0.59375 0.046875 1.140625q0.046875 0.546875 0.28125 0.890625q0.25 0.328125 0.828125 0.328125zm7.9132996 1.484375q-1.328125 0 -2.015625 -0.53125q-0.671875 -0.546875 -0.90625 -1.515625q-0.234375 -0.96875 -0.234375 -2.25l0 -2.484375q0 -1.359375 0.234375 -2.3125q0.25 -0.96875 0.9375 -1.484375q0.6875 -0.515625 1.984375 -0.515625q1.171875 0 1.8125 0.390625q0.65625 0.375 0.890625 1.140625q0.25 0.75 0.25 1.875l0 0.625l-1.8125 0l0 -0.65625q0 -0.703125 -0.09375 -1.109375q-0.09375 -0.40625 -0.34375 -0.59375q-0.234375 -0.1875 -0.6875 -0.1875q-0.484375 0 -0.75 0.21875q-0.25 0.21875 -0.34375 0.75q-0.078125 0.53125 -0.078125 1.453125l0 3.390625q0 1.390625 0.265625 1.859375q0.265625 0.453125 0.9375 0.453125q0.5 0 0.734375 -0.234375q0.234375 -0.234375 0.296875 -0.65625q0.0625 -0.4375 0.0625 -0.96875l0 -0.875l1.8125 0l0 0.734375q0 1.09375 -0.25 1.875q-0.25 0.78125 -0.90625 1.203125q-0.640625 0.40625 -1.796875 0.40625zm4.7614746 -0.171875l0 -15.109375l2.0 0l0 9.0l2.90625 -4.65625l2.09375 0l-2.546875 4.21875l2.46875 6.5625l-2.0 0l-2.015625 -5.515625l-0.90625 1.375l0 4.125l-2.0 0zm10.956665 0.171875q-1.28125 0 -1.96875 -0.5q-0.6875 -0.5 -0.96875 -1.453125q-0.265625 -0.96875 -0.265625 -2.359375l0 -2.46875q0 -1.4375 0.28125 -2.390625q0.28125 -0.953125 0.984375 -1.4375q0.703125 -0.484375 1.9375 -0.484375q1.359375 0 2.0 0.5625q0.640625 0.5625 0.84375 1.625q0.203125 1.046875 0.203125 2.515625l0 0.875l-4.25 0l0 2.171875q0 0.65625 0.125 1.0625q0.125 0.40625 0.390625 0.609375q0.265625 0.1875 0.703125 0.1875q0.4375 0 0.671875 -0.203125q0.234375 -0.21875 0.3125 -0.625q0.09375 -0.40625 0.09375 -0.9375l0 -0.65625l1.9375 0l0 0.40625q0 1.625 -0.6875 2.5625q-0.6875 0.9375 -2.34375 0.9375zm-1.203125 -6.59375l2.296875 0l0 -0.96875q0 -0.671875 -0.078125 -1.125q-0.078125 -0.46875 -0.3125 -0.6875q-0.21875 -0.234375 -0.734375 -0.234375q-0.484375 0 -0.734375 0.21875q-0.25 0.21875 -0.34375 0.75q-0.09375 0.53125 -0.09375 1.46875l0 0.578125zm6.1199036 6.4375l0 -10.78125l2.0 0l0 1.53125q0.59375 -1.0 1.1875 -1.328125q0.59375 -0.328125 1.203125 -0.328125q0.0625 0 0.125 0q0.078125 0 0.1875 0.015625l0 2.203125q-0.21875 -0.09375 -0.515625 -0.15625q-0.28125 -0.078125 -0.578125 -0.078125q-0.46875 0 -0.859375 0.21875q-0.375 0.21875 -0.75 0.828125l0 7.875l-2.0 0zm10.370331 0l0 -15.109375l5.859375 0l0 1.5625l-3.75 0l0 5.0l3.046875 0l0 1.5l-3.046875 0l0 5.53125l3.796875 0l0 1.515625l-5.90625 0zm7.4212036 0l0 -10.78125l2.0 0l0 1.0625q0.546875 -0.5 1.1875 -0.859375q0.65625 -0.359375 1.453125 -0.359375q0.640625 0 0.984375 0.34375q0.359375 0.328125 0.484375 0.84375q0.140625 0.5 0.140625 1.015625l0 8.734375l-1.984375 0l0 -8.15625q0 -0.578125 -0.171875 -0.890625q-0.171875 -0.3125 -0.6875 -0.3125q-0.34375 0 -0.703125 0.203125q-0.359375 0.1875 -0.703125 0.46875l0 8.6875l-2.0 0zm11.002594 3.34375q-0.984375 0 -1.765625 -0.21875q-0.78125 -0.203125 -1.234375 -0.65625q-0.4375 -0.4375 -0.4375 -1.15625q0 -0.53125 0.21875 -0.921875q0.234375 -0.390625 0.578125 -0.671875q0.359375 -0.296875 0.75 -0.484375q-0.515625 -0.15625 -0.78125 -0.46875q-0.265625 -0.328125 -0.265625 -0.6875q0 -0.59375 0.3125 -1.015625q0.328125 -0.4375 0.890625 -0.9375q-0.625 -0.46875 -0.9375 -1.1875q-0.3125 -0.734375 -0.3125 -2.03125q0 -1.265625 0.34375 -2.109375q0.34375 -0.859375 1.015625 -1.296875q0.6875 -0.4375 1.671875 -0.4375q0.875 0 1.40625 0.3125q0.53125 0.296875 0.8125 0.890625q0.09375 -0.15625 0.5 -0.515625q0.421875 -0.359375 0.953125 -0.609375l0.296875 -0.125l0.515625 1.28125q-0.25 0.046875 -0.65625 0.1875q-0.390625 0.125 -0.734375 0.265625q-0.34375 0.140625 -0.4375 0.234375q0.125 0.328125 0.21875 0.921875q0.109375 0.59375 0.109375 1.0625q0 1.09375 -0.28125 1.9375q-0.28125 0.84375 -0.921875 1.328125q-0.640625 0.46875 -1.78125 0.46875q-0.234375 0 -0.515625 -0.03125q-0.28125 -0.046875 -0.515625 -0.109375q-0.109375 0.171875 -0.234375 0.40625q-0.109375 0.21875 -0.109375 0.421875q0 0.203125 0.203125 0.328125q0.21875 0.109375 0.6875 0.15625l1.6875 0.140625q1.265625 0.125 1.875 0.78125q0.625 0.640625 0.625 1.859375q0 0.875 -0.421875 1.484375q-0.40625 0.609375 -1.234375 0.90625q-0.828125 0.296875 -2.09375 0.296875zm0.140625 -1.578125q1.0625 0 1.5625 -0.25q0.515625 -0.25 0.515625 -0.8125q0 -0.328125 -0.125 -0.5625q-0.125 -0.21875 -0.4375 -0.34375q-0.3125 -0.125 -0.921875 -0.1875l-1.6875 -0.15625q-0.203125 0.21875 -0.390625 0.421875q-0.1875 0.203125 -0.3125 0.4375q-0.109375 0.234375 -0.109375 0.484375q0 0.484375 0.40625 0.71875q0.421875 0.25 1.5 0.25zm-0.09375 -6.46875q0.4375 0 0.6875 -0.15625q0.25 -0.15625 0.375 -0.46875q0.140625 -0.3125 0.1875 -0.75q0.046875 -0.453125 0.046875 -1.015625q0 -0.5625 -0.046875 -1.015625q-0.046875 -0.453125 -0.171875 -0.78125q-0.125 -0.328125 -0.375 -0.484375q-0.25 -0.171875 -0.6875 -0.171875q-0.40625 0 -0.6875 0.171875q-0.265625 0.15625 -0.390625 0.46875q-0.125 0.3125 -0.1875 0.765625q-0.046875 0.453125 -0.046875 1.046875q0 0.515625 0.046875 0.953125q0.046875 0.4375 0.171875 0.75q0.140625 0.3125 0.40625 0.5q0.265625 0.1875 0.671875 0.1875zm5.396698 4.703125l0 -10.78125l2.0 0l0 10.78125l-2.0 0zm0 -12.390625l0 -2.09375l2.0 0l0 2.09375l-2.0 0zm4.131653 12.390625l0 -10.78125l2.0 0l0 1.0625q0.546875 -0.5 1.1875 -0.859375q0.65625 -0.359375 1.453125 -0.359375q0.640625 0 0.984375 0.34375q0.359375 0.328125 0.484375 0.84375q0.140625 0.5 0.140625 1.015625l0 8.734375l-1.984375 0l0 -8.15625q0 -0.578125 -0.171875 -0.890625q-0.171875 -0.3125 -0.6875 -0.3125q-0.34375 0 -0.703125 0.203125q-0.359375 0.1875 -0.703125 0.46875l0 8.6875l-2.0 0zm11.1901245 0.15625q-1.28125 0 -1.96875 -0.5q-0.6875 -0.5 -0.96875 -1.453125q-0.265625 -0.96875 -0.265625 -2.359375l0 -2.46875q0 -1.4375 0.28125 -2.390625q0.28125 -0.953125 0.984375 -1.4375q0.703125 -0.484375 1.9375 -0.484375q1.359375 0 2.0 0.5625q0.640625 0.5625 0.84375 1.625q0.203125 1.046875 0.203125 2.515625l0 0.875l-4.25 0l0 2.171875q0 0.65625 0.125 1.0625q0.125 0.40625 0.390625 0.609375q0.265625 0.1875 0.703125 0.1875q0.4375 0 0.671875 -0.203125q0.234375 -0.21875 0.3125 -0.625q0.09375 -0.40625 0.09375 -0.9375l0 -0.65625l1.9375 0l0 0.40625q0 1.625 -0.6875 2.5625q-0.6875 0.9375 -2.34375 0.9375zm-1.203125 -6.59375l2.296875 0l0 -0.96875q0 -0.671875 -0.078125 -1.125q-0.078125 -0.46875 -0.3125 -0.6875q-0.21875 -0.234375 -0.734375 -0.234375q-0.484375 0 -0.734375 0.21875q-0.25 0.21875 -0.34375 0.75q-0.09375 0.53125 -0.09375 1.46875l0 0.578125z" fill-rule="nonzero"/><path fill="#37474f" d="m403.04666 394.77524q0.828125 -1.703125 2.75 -3.484375l0.8125 0.734375q-1.84375 1.703125 -2.59375 3.265625q-0.8125 1.703125 -0.8125 4.078125q0 2.015625 0.8125 3.796875q0.75 1.625 2.59375 3.640625l-0.8125 0.8125q-1.859375 -2.078125 -2.75 -3.9375q-0.953125 -2.0 -0.953125 -4.3125q0 -2.59375 0.953125 -4.59375zm14.03125 -1.9375q-2.8125 0.078125 -5.484375 0l-0.296875 -1.1875q7.640625 0.078125 11.34375 -0.734375l0.828125 1.328125q0.140625 0.375 -0.53125 0.15625l-4.375 0.296875l0 1.1875l7.203125 0l0 1.1875l-7.203125 0l0 1.109375l5.046875 0l0 5.71875l-5.046875 0l0 1.328125l5.5625 0l0 1.1875l-5.5625 0l0 1.484375l7.421875 0l0 1.203125l-16.46875 0l0 -1.203125l7.5625 0l0 -1.484375l-5.71875 0l0 -1.1875l5.71875 0l0 -1.328125l-2.515625 0l-2.453125 0l0 -5.71875l4.96875 0l0 -1.109375l-7.265625 0l0 -1.1875l7.265625 0l0 -1.046875zm-3.703125 5.71875l3.703125 0l0 -1.1875l-3.703125 0l0 1.1875zm0 2.15625l3.703125 0l0 -1.265625l-3.703125 0l0 1.265625zm5.1875 -2.15625l3.78125 0l0 -1.1875l-3.78125 0l0 1.1875zm3.78125 2.15625l0 -1.265625l-3.78125 0l0 1.265625l3.78125 0zm13.140625 1.625q-0.671875 1.71875 -1.40625 2.609375q-1.046875 1.265625 -2.078125 1.265625q-1.859375 0 -2.75 -2.15625q-0.515625 -1.265625 -0.515625 -5.421875q0 -2.96875 0.296875 -6.015625l1.5625 0.375q0.890625 0.21875 0.0625 0.734375q-0.296875 2.75 -0.296875 4.984375q0 3.03125 0.375 4.296875q0.375 1.265625 1.109375 1.265625q0.828125 0 1.421875 -1.1875q0.359375 -0.75 0.734375 -1.78125l1.484375 1.03125zm4.375 -8.671875q3.34375 3.484375 4.09375 8.453125l-2.015625 0.515625q-0.890625 -5.1875 -3.625 -8.078125l1.546875 -0.890625zm6.1640625 6.890625q2.375 -3.265625 3.125 -9.71875l1.625 0.296875q0.296875 0.296875 -0.21875 0.375l-0.21875 1.265625l3.484375 0l0 1.40625q-0.21875 4.671875 -1.859375 8.15625q1.5625 2.828125 4.828125 2.828125l6.234375 0l-0.296875 1.640625l-5.9375 0q-3.5625 0 -5.5 -3.046875q-1.84375 2.671875 -3.484375 3.859375l-0.96875 -1.40625q2.015625 -1.34375 3.5625 -4.015625q-0.890625 -1.9375 -1.40625 -4.078125q-0.890625 2.140625 -1.859375 3.625l-1.109375 -1.1875zm3.78125 -5.046875q0.375 3.125 1.265625 5.203125q1.109375 -2.671875 1.265625 -6.53125l-2.296875 0l-0.234375 1.328125zm11.359375 6.390625q0.375 0 0.453125 -2.078125l1.40625 0.375q0 3.109375 -1.40625 3.109375l-1.265625 0q-1.265625 0 -1.265625 -1.328125l0 -8.3125l-2.453125 0l0 5.859375q0 2.453125 -1.78125 4.671875l-1.1875 -1.265625q1.484375 -1.25 1.484375 -4.078125l0 -6.609375l5.421875 0l0 9.359375q0 0.296875 0.21875 0.296875l0.375 0zm10.3125 1.265625q-2.890625 1.03125 -5.40625 1.703125q-0.234375 0.59375 -0.453125 0.21875l-0.515625 -1.703125l2.59375 -0.515625l0 -4.09375l-2.0 0l0 -1.40625l2.0 0l0 -3.9375l-2.21875 0l0 -1.40625l5.9375 0l0 1.40625l-2.234375 0l0 3.9375l2.0 0l0 1.40625l-2.0 0l0 3.71875q0.59375 -0.078125 2.15625 -0.59375l0.140625 1.265625zm5.875 -3.5l0 2.15625l4.15625 0l0 1.40625l-4.15625 0l0 2.3125l4.890625 0l0 1.40625l-11.796875 0l0 -1.40625l5.640625 0l0 -2.3125l-4.015625 0l0 -1.40625l4.015625 0l0 -2.15625l-2.671875 0l0 0.96875l-1.265625 0l0 -9.125l9.203125 0l0 8.828125l-1.265625 0l0 -0.671875l-2.734375 0zm2.734375 -3.40625l-2.734375 0l0 2.21875l2.734375 0l0 -2.21875zm0 -3.5625l-2.734375 0l0 2.375l2.734375 0l0 -2.375zm-4.0 2.375l0 -2.375l-2.671875 0l0 2.375l2.671875 0zm0 1.1875l-2.671875 0l0 2.21875l2.671875 0l0 -2.21875zm20.703125 0.296875q0.15625 2.8125 0 5.640625q2.234375 0.8125 4.3125 2.296875l-0.890625 1.40625q-1.5625 -1.1875 -3.421875 -2.078125q0 1.34375 -0.8125 2.15625q-0.890625 0.890625 -2.59375 0.890625q-1.71875 0 -2.609375 -0.890625q-0.734375 -0.734375 -0.734375 -1.921875q0 -1.046875 0.59375 -1.640625q0.890625 -0.890625 2.671875 -0.890625q0.96875 0 1.921875 0.21875q0.15625 -2.515625 0 -5.109375l-5.484375 0.359375l0 -1.546875l5.34375 -0.296875q-0.078125 -2.078125 -0.296875 -3.71875l1.5625 0q0.8125 0.15625 0.140625 0.59375q0.078125 1.5625 0.15625 3.046875l4.0 -0.21875l0 1.546875l-3.859375 0.15625zm-11.203125 9.953125q-0.296875 -2.09375 -0.296875 -4.828125q0 -6.015625 0.890625 -9.65625l1.625 0.296875q0.53125 0.21875 -0.0625 0.515625q-0.828125 2.609375 -0.828125 8.84375q0 2.8125 0.375 4.53125l-1.703125 0.296875zm9.640625 -3.28125q-1.25 -0.359375 -1.921875 -0.359375q-1.046875 0 -1.484375 0.4375q-0.375 0.375 -0.375 0.75q0 0.59375 0.296875 0.890625q0.515625 0.515625 1.5625 0.515625q1.03125 0 1.484375 -0.515625q0.515625 -0.59375 0.4375 -1.71875zm12.546875 2.453125q-2.296875 0 -3.1875 -0.890625q-0.890625 -0.890625 -0.890625 -2.375q0 -0.8125 0.296875 -1.921875l1.703125 0.21875q-0.375 1.1875 -0.375 1.703125q0 0.671875 0.453125 1.109375q0.515625 0.53125 2.078125 0.53125l8.0937195 0l0 1.625l-8.1718445 0zm-2.96875 -12.546875l9.6562195 0l0 1.640625l-9.6562195 0l0 -1.640625zm18.109344 12.546875q-2.296875 0 -3.1875 -0.890625q-0.890625 -0.890625 -0.890625 -2.375q0 -0.8125 0.296875 -1.921875l1.703125 0.21875q-0.375 1.1875 -0.375 1.703125q0 0.671875 0.453125 1.109375q0.515625 0.53125 2.078125 0.53125l8.09375 0l0 1.625l-8.171875 0zm-2.96875 -12.546875l9.65625 0l0 1.640625l-9.65625 0l0 -1.640625zm28.5 1.265625q-2.59375 0 -4.078125 0.515625q-1.640625 0.59375 -3.046875 2.015625q-1.40625 1.40625 -1.40625 3.625q0 1.78125 1.109375 2.90625q1.484375 1.484375 5.71875 1.625l-0.59375 1.640625q-4.375 -0.21875 -6.09375 -1.9375q-1.703125 -1.703125 -1.703125 -4.15625q0 -3.484375 2.75 -5.484375q-3.484375 0.515625 -7.125 1.03125l-0.453125 -1.703125q7.28125 -0.515625 14.625 -1.78125l0.296875 1.703125zm-1.625 5.796875q-1.640625 -1.1875 -2.828125 -1.859375l0.75 -0.890625q1.109375 0.671875 2.8125 1.859375l-0.734375 0.890625zm1.484375 -1.78125q-1.78125 -1.265625 -2.828125 -1.859375l0.75 -0.890625q1.03125 0.59375 2.8125 1.859375l-0.734375 0.890625zm6.6757812 -1.71875q-0.375 -1.625 -0.671875 -4.515625l1.5625 0q0.734375 0.140625 0.140625 0.59375q0 1.1875 0.453125 3.40625l3.703125 -1.328125l0.15625 -3.421875l1.40625 0q0.8125 0.15625 0.15625 0.59375l-0.234375 2.53125q0.671875 -0.15625 1.34375 -0.15625q2.15625 0 3.265625 1.109375q1.1875 1.1875 1.1875 3.046875q0 1.78125 -0.890625 2.671875q-1.109375 1.109375 -2.890625 1.109375q-2.375 0 -3.796875 -1.25l0.671875 -1.421875q1.640625 1.125 2.96875 1.125q1.1875 0 1.9375 -0.75q0.4375 -0.4375 0.4375 -1.484375q0 -1.1875 -0.734375 -1.921875q-0.828125 -0.828125 -2.15625 -0.828125q-1.484375 0 -2.96875 0.59375l-3.1875 1.265625q1.25 4.828125 3.1875 8.765625l-1.703125 0.671875q-1.71875 -4.015625 -2.96875 -8.84375l-3.5625 1.484375l-0.828125 -1.484375l4.015625 -1.5625zm19.4375 1.78125q-1.78125 0.59375 -4.15625 1.5625l-0.734375 -1.5625q2.375 -0.734375 4.296875 -1.328125q2.15625 -0.671875 4.09375 -0.671875q1.921875 0 3.109375 1.1875q1.265625 1.265625 1.265625 3.125q0 2.21875 -1.109375 3.328125q-2.015625 2.015625 -6.765625 2.15625l-0.59375 -1.5625q4.6875 -0.0625 6.171875 -1.546875q0.8125 -0.828125 0.8125 -2.375q0 -1.265625 -1.046875 -2.3125q-0.59375 -0.59375 -2.078125 -0.59375q-1.40625 0 -3.265625 0.59375zm25.460938 -4.078125q-2.59375 0 -4.078125 0.515625q-1.640625 0.59375 -3.046875 2.015625q-1.40625 1.40625 -1.40625 3.625q0 1.78125 1.109375 2.90625q1.484375 1.484375 5.71875 1.625l-0.59375 1.640625q-4.375 -0.21875 -6.09375 -1.9375q-1.703125 -1.703125 -1.703125 -4.15625q0 -3.484375 2.75 -5.484375q-3.484375 0.515625 -7.125 1.03125l-0.453125 -1.703125q7.28125 -0.515625 14.625 -1.78125l0.296875 1.703125zm2.3789062 4.828125q0 -0.8125 0.8125 -1.5625q4.828125 -4.53125 6.234375 -6.828125l1.34375 1.046875q0.65625 0.734375 -0.375 0.59375q-1.109375 1.625 -5.859375 6.078125q-0.296875 0.296875 -0.296875 0.515625q0 0.453125 0.296875 0.671875q4.15625 3.265625 6.671875 6.15625l-1.328125 1.34375q-2.609375 -3.046875 -6.390625 -6.3125q-1.109375 -0.96875 -1.109375 -1.703125zm22.332031 -1.640625q0.078125 -1.40625 -0.8125 -1.40625q-1.265625 0 -4.890625 3.640625l0 7.421875l-1.484375 0l0 -6.09375l-3.265625 4.09375l-1.1875 -1.1875l2.96875 -3.5q0.8125 -1.03125 1.484375 -2.140625l0 -1.78125l-3.265625 1.109375l-0.453125 -1.5625l3.71875 -0.96875l0 -4.375l1.328125 0q0.671875 0.15625 0.15625 0.59375l0 3.34375l0.8125 0.4375q0.671875 0.296875 -0.15625 0.671875l-0.65625 1.40625l0 0.53125q3.484375 -3.265625 5.265625 -3.265625q2.21875 0 2.0 2.96875l-0.375 5.703125q-0.0625 1.1875 0.890625 1.1875q0.96875 0 1.421875 -0.515625q0.65625 -0.8125 1.109375 -1.921875l1.265625 1.03125q-0.75 1.40625 -1.421875 2.078125q-0.953125 0.96875 -2.21875 0.96875q-2.75 0 -2.59375 -2.828125l0.359375 -5.640625zm17.078125 8.09375q1.1875 -0.140625 2.0 -0.96875q0.890625 -0.890625 0.890625 -2.375q0 -1.625 -0.96875 -2.59375q-0.953125 -0.96875 -3.03125 -0.96875q-2.453125 0 -3.796875 0.96875q-1.25 0.890625 -3.265625 3.1875l-1.25 -1.109375q5.34375 -5.34375 8.078125 -8.90625q-2.4375 0.296875 -4.890625 0.515625l-0.515625 -1.703125q3.625 0 6.453125 -0.375l0.671875 -0.296875l0.8125 0.828125q0.8125 0.734375 -0.375 0.953125q-2.21875 2.53125 -4.453125 4.984375q1.5625 -0.375 2.59375 -0.375q2.828125 0 4.15625 1.328125q1.34375 1.34375 1.34375 3.421875q0 2.15625 -1.1875 3.34375q-1.78125 1.78125 -4.53125 1.78125q-2.59375 0 -3.78125 -1.1875q-0.96875 -0.96875 -0.96875 -2.3125q0 -0.890625 0.671875 -1.546875q0.734375 -0.75 1.703125 -0.75q1.34375 0 2.234375 0.890625q1.03125 1.046875 1.40625 3.265625zm-1.484375 0.21875q-0.21875 -1.921875 -0.890625 -2.59375q-0.515625 -0.515625 -1.046875 -0.515625q-0.59375 0 -0.890625 0.296875q-0.359375 0.375 -0.359375 0.8125q0 0.671875 0.59375 1.265625q0.734375 0.734375 1.921875 0.734375q0.296875 0 0.671875 0zm12.464844 -2.21875q-0.890625 1.859375 -2.75 3.9375l-0.8125 -0.8125q1.859375 -2.015625 2.59375 -3.640625q0.828125 -1.78125 0.828125 -3.796875q0 -2.375 -0.828125 -4.078125q-0.734375 -1.5625 -2.59375 -3.265625l0.8125 -0.734375q1.9375 1.78125 2.75 3.484375q0.96875 2.0 0.96875 4.59375q0 2.3125 -0.96875 4.3125z" fill-rule="nonzero"/></g><g filter="url(#shadowFilter-gf5243d7071_0_79.5)"><use xlink:href="#gf5243d7071_0_79.5" transform="matrix(1.0 0.0 0.0 1.0 0.0 2.0)"/></g><defs><filter id="shadowFilter-gf5243d7071_0_79.5" filterUnits="userSpaceOnUse"><feGaussianBlur in="SourceAlpha" stdDeviation="2.0" result="blur"/><feComponentTransfer in="blur" color-interpolation-filters="sRGB"><feFuncR type="linear" slope="0" intercept="0.0"/><feFuncG type="linear" slope="0" intercept="0.0"/><feFuncB type="linear" slope="0" intercept="0.0"/><feFuncA type="linear" slope="0.5" intercept="0"/></feComponentTransfer></filter></defs><g id="gf5243d7071_0_79.5"><path fill="#000000" fill-opacity="0.0" d="m422.00525 119.1601l-236.0 0l0 226.48819l236.0 0z" fill-rule="evenodd"/><path stroke="#ffd966" stroke-width="3.0" stroke-miterlimit="800.0" stroke-linecap="butt" d="m422.00525 119.1601l-236.0 0l0 226.48819l236.0 0z" fill-rule="evenodd"/></g><g filter="url(#shadowFilter-gf5243d7071_0_79.6)"><use xlink:href="#gf5243d7071_0_79.6" transform="matrix(1.0 0.0 0.0 1.0 0.0 2.0)"/></g><defs><filter id="shadowFilter-gf5243d7071_0_79.6" filterUnits="userSpaceOnUse"><feGaussianBlur in="SourceAlpha" stdDeviation="2.0" result="blur"/><feComponentTransfer in="blur" color-interpolation-filters="sRGB"><feFuncR type="linear" slope="0" intercept="0.0"/><feFuncG type="linear" slope="0" intercept="0.0"/><feFuncB type="linear" slope="0" intercept="0.0"/><feFuncA type="linear" slope="0.5" intercept="0"/></feComponentTransfer></filter></defs><g id="gf5243d7071_0_79.6"><path fill="#ffd966" d="m195.83202 102.362206l216.34645 0l0 33.732277l-216.34645 0z" fill-rule="evenodd"/><path fill="#37474f" d="m278.61014 114.57022l-10.328125 0l0 -1.625l12.03125 0l0 10.609375l-1.703125 0l0 -0.8125l-10.328125 0l0 -1.640625l10.328125 0l0 -6.53125zm19.140625 0.96875q-3.9375 8.15625 -13.203125 8.609375q-0.375 0.96875 -0.75 0.15625l-0.59375 -1.9375q9.65625 -0.21875 12.984375 -7.9375l1.5625 1.109375zm-10.46875 0q-2.0 -1.859375 -3.78125 -3.046875l1.265625 -1.5625q1.5625 0.96875 3.9375 3.203125l-1.421875 1.40625zm19.371094 1.1875l-7.421875 0l0 -1.640625l15.21875 0l0 1.640625l-6.078125 0l0 0.96875q0 4.671875 -3.34375 7.71875l-1.484375 -1.109375q3.109375 -2.453125 3.109375 -6.609375l0 -0.96875zm-4.75 -4.53125l0 -1.625l9.875 0l0 1.625l-9.875 0zm23.613281 2.078125l6.890625 0l0 1.640625l-6.828125 0l0 1.328125q0 5.5 -4.75 8.3125l-1.546875 -1.1875q4.59375 -2.375 4.59375 -7.125l0 -1.328125l-7.34375 0l0 -1.640625l7.265625 0l0 -4.453125l1.484375 0q0.828125 0.078125 0.234375 0.59375l0 3.859375z" fill-rule="nonzero"/><path fill="#37474f" d="m336.63748 124.148346l0 -12.5q-0.015625 0.015625 -0.421875 0.109375q-0.390625 0.09375 -0.90625 0.1875q-0.5 0.09375 -0.890625 0.171875q-0.390625 0.078125 -0.40625 0.078125l0 -1.515625q0.3125 -0.078125 0.734375 -0.203125q0.421875 -0.140625 0.859375 -0.3125q0.4375 -0.1875 0.828125 -0.46875q0.40625 -0.28125 0.6875 -0.65625l1.515625 0l0 15.109375l-2.0 0z" fill-rule="nonzero"/></g><g filter="url(#shadowFilter-gf5243d7071_0_79.7)"><use xlink:href="#gf5243d7071_0_79.7" transform="matrix(1.0 0.0 0.0 1.0 0.0 2.0)"/></g><defs><filter id="shadowFilter-gf5243d7071_0_79.7" filterUnits="userSpaceOnUse"><feGaussianBlur in="SourceAlpha" stdDeviation="2.0" result="blur"/><feComponentTransfer in="blur" color-interpolation-filters="sRGB"><feFuncR type="linear" slope="0" intercept="0.0"/><feFuncG type="linear" slope="0" intercept="0.0"/><feFuncB type="linear" slope="0" intercept="0.0"/><feFuncA type="linear" slope="0.5" intercept="0"/></feComponentTransfer></filter></defs><g id="gf5243d7071_0_79.7"><path fill="#ffd966" d="m205.24934 242.79527l197.51183 0l0 44.535446l-197.51183 0z" fill-rule="evenodd"/><path fill="#37474f" d="m272.79236 264.56113q7.796875 -3.265625 11.8125 -9.20314l1.40625 1.1875153q0.59375 0.453125 -0.515625 0.671875q-1.421875 1.859375 -3.640625 3.78125l0 10.09375l-1.703125 0l0 -8.6875q-2.609375 2.015625 -6.09375 3.640625l-1.265625 -1.484375zm15.441406 4.15625q4.53125 -2.453125 6.53125 -5.5625q-2.078125 -1.265625 -3.640625 -1.9375l0.890625 -1.625q1.640625 0.734375 3.71875 1.921875q1.03125 -2.140625 1.78125 -5.7812653l1.78125 0.59376526q0.515625 0.140625 -0.078125 0.4375q-0.96875 3.71875 -2.0 5.71875q1.78125 1.1875 2.890625 2.078125l-0.96875 1.703125q-1.484375 -1.25 -2.8125 -2.140625q-2.75 3.703125 -6.53125 6.015625l-1.5625 -1.421875zm13.65625 -4.828125l0 -1.625l16.546875 0l0 1.625l-16.546875 0zm33.398438 -2.140625q-3.78125 6.078125 -11.71875 8.609375q-0.234375 0.890625 -0.75 0.078125l-1.03125 -1.640625q8.078125 -1.78125 12.171875 -8.390625l1.328125 1.34375zm-11.421875 2.0q-2.234375 -1.640625 -3.71875 -2.375l1.109375 -1.5625q1.859375 0.96875 3.796875 2.375l-1.1875 1.5625zm2.21875 -4.375q-2.0 -1.421875 -3.703125 -2.375l0.953125 -1.5625153q2.015625 1.1093903 3.796875 2.3750153l-1.046875 1.5625zm6.15625 -5.0468903q1.265625 0.953125 2.53125 2.2968903l-0.96875 0.96875q-1.328125 -1.484375 -2.515625 -2.3750153l0.953125 -0.890625zm-1.78125 1.25q1.265625 1.0468903 2.53125 2.3750153l-0.96875 0.890625q-1.265625 -1.328125 -2.59375 -2.4375l1.03125 -0.82814026z" fill-rule="nonzero"/></g><g filter="url(#shadowFilter-gf5243d7071_0_79.8)"><use xlink:href="#gf5243d7071_0_79.8" transform="matrix(1.0 0.0 0.0 1.0 0.0 2.0)"/></g><defs><filter id="shadowFilter-gf5243d7071_0_79.8" filterUnits="userSpaceOnUse"><feGaussianBlur in="SourceAlpha" stdDeviation="2.0" result="blur"/><feComponentTransfer in="blur" color-interpolation-filters="sRGB"><feFuncR type="linear" slope="0" intercept="0.0"/><feFuncG type="linear" slope="0" intercept="0.0"/><feFuncB type="linear" slope="0" intercept="0.0"/><feFuncA type="linear" slope="0.5" intercept="0"/></feComponentTransfer></filter></defs><g id="gf5243d7071_0_79.8"><path fill="#ffd966" d="m205.24934 178.79527l197.51183 0l0 44.53543l-197.51183 0z" fill-rule="evenodd"/><path fill="#37474f" d="m244.69217 198.40486q0.140625 5.640625 -4.828125 8.765625l-1.265625 -1.40625q4.375 -2.375 4.375 -6.6875l0 -3.1875l1.5625 0q0.671875 0.078125 0.15625 0.515625l0 1.9375q2.671875 -2.015625 4.078125 -3.9375l-12.09375 0.4375l-0.15625 -1.703125l13.515625 -0.375l0.515625 -0.140625l1.109375 1.328125q0.21875 0.296875 -0.375 0.234375q-2.21875 2.890625 -5.34375 5.40625l-1.25 -1.1875zm22.257812 -5.1875q0.59375 0 0.96875 -0.375q0.375 -0.375 0.375 -0.96875q0 -0.59375 -0.375 -0.953125q-0.375 -0.375 -0.96875 -0.375q-0.59375 0 -0.96875 0.375q-0.359375 0.359375 -0.359375 0.953125q0 0.59375 0.359375 0.96875q0.375 0.375 0.96875 0.375zm0 0.734375q-0.890625 0 -1.484375 -0.59375q-0.59375 -0.59375 -0.59375 -1.484375q0 -0.890625 0.59375 -1.484375q0.59375 -0.59375 1.484375 -0.59375q0.890625 0 1.484375 0.59375q0.59375 0.59375 0.59375 1.484375q0 0.890625 -0.59375 1.484375q-0.59375 0.59375 -1.484375 0.59375zm-13.28125 0.96875l0 -1.625l10.984375 0l1.921875 1.40625q-0.359375 8.984375 -10.15625 11.734375l-1.34375 -1.640625q9.28125 -2.15625 9.71875 -9.875l-11.125 0zm27.304688 4.53125q0 5.5625 -5.1875 8.015625l-1.484375 -1.265625q4.890625 -2.21875 4.96875 -6.828125l0 -7.421875l1.5625 0q0.734375 0.15625 0.140625 0.59375l0 6.90625zm-7.640625 1.625l-1.703125 0l0 -8.375l1.625 0q0.75 0.0625 0.078125 0.59375l0 7.78125zm11.207031 -1.1875q3.265625 -3.328125 4.15625 -8.453125l1.859375 0.4375q0.59375 0.15625 -0.15625 0.59375q-0.4375 1.640625 -1.109375 3.203125l10.984375 0l0 1.625l-4.296875 0q-0.671875 5.796875 -5.578125 10.03125l-1.703125 -0.96875q5.125 -4.09375 5.421875 -9.0625l-5.640625 0q-0.96875 1.9375 -2.453125 3.421875l-1.484375 -0.828125zm17.664062 0l0 -1.625l16.546875 0l0 1.625l-16.546875 0zm19.898438 4.90625q8.078125 -1.78125 12.171875 -8.390625l1.328125 1.34375q-3.78125 6.078125 -11.71875 8.609375q-0.234375 0.890625 -0.75 0.078125l-1.03125 -1.640625zm-0.53125 -8.984375q1.859375 0.96875 3.796875 2.375l-1.1875 1.5625q-2.234375 -1.640625 -3.71875 -2.375l1.109375 -1.5625zm2.078125 -4.375q2.015625 1.109375 3.796875 2.375l-1.046875 1.5625q-2.0 -1.421875 -3.703125 -2.375l0.953125 -1.5625zm13.8828125 14.546875l0 -1.40625l7.578125 0l0 -3.125l-7.125 0l0 -1.40625l7.125 0l0 -2.96875l-7.578125 0l0 -1.40625l9.0625 0l0 11.125l-1.484375 0l0 -0.8125l-7.578125 0zm26.496094 -8.609375q-3.9375 8.15625 -13.203125 8.609375q-0.375 0.96875 -0.75 0.15625l-0.59375 -1.9375q9.65625 -0.21875 12.984375 -7.9375l1.5625 1.109375zm-10.46875 0q-2.0 -1.859375 -3.78125 -3.046875l1.265625 -1.5625q1.5625 0.96875 3.9375 3.203125l-1.421875 1.40625z" fill-rule="nonzero"/><path fill="#37474f" d="m368.18045 205.98299l0 -12.5q-0.015625 0.015625 -0.421875 0.109375q-0.390625 0.09375 -0.90625 0.1875q-0.5 0.09375 -0.890625 0.171875q-0.390625 0.078125 -0.40625 0.078125l0 -1.515625q0.3125 -0.078125 0.734375 -0.203125q0.421875 -0.140625 0.859375 -0.3125q0.4375 -0.1875 0.828125 -0.46875q0.40625 -0.28125 0.6875 -0.65625l1.515625 0l0 15.109375l-2.0 0z" fill-rule="nonzero"/></g><g filter="url(#shadowFilter-gf5243d7071_0_79.9)"><use xlink:href="#gf5243d7071_0_79.9" transform="matrix(1.0 0.0 0.0 1.0 0.0 2.0)"/></g><defs><filter id="shadowFilter-gf5243d7071_0_79.9" filterUnits="userSpaceOnUse"><feGaussianBlur in="SourceAlpha" stdDeviation="2.0" result="blur"/><feComponentTransfer in="blur" color-interpolation-filters="sRGB"><feFuncR type="linear" slope="0" intercept="0.0"/><feFuncG type="linear" slope="0" intercept="0.0"/><feFuncB type="linear" slope="0" intercept="0.0"/><feFuncA type="linear" slope="0.5" intercept="0"/></feComponentTransfer></filter></defs><g id="gf5243d7071_0_79.9"><path fill="#000000" fill-opacity="0.0" d="m774.00525 119.1601l-236.0 0l0 226.48819l236.0 0z" fill-rule="evenodd"/><path stroke="#ffd966" stroke-width="3.0" stroke-miterlimit="800.0" stroke-linecap="butt" d="m774.00525 119.1601l-236.0 0l0 226.48819l236.0 0z" fill-rule="evenodd"/></g><g filter="url(#shadowFilter-gf5243d7071_0_79.10)"><use xlink:href="#gf5243d7071_0_79.10" transform="matrix(1.0 0.0 0.0 1.0 0.0 2.0)"/></g><defs><filter id="shadowFilter-gf5243d7071_0_79.10" filterUnits="userSpaceOnUse"><feGaussianBlur in="SourceAlpha" stdDeviation="2.0" result="blur"/><feComponentTransfer in="blur" color-interpolation-filters="sRGB"><feFuncR type="linear" slope="0" intercept="0.0"/><feFuncG type="linear" slope="0" intercept="0.0"/><feFuncB type="linear" slope="0" intercept="0.0"/><feFuncA type="linear" slope="0.5" intercept="0"/></feComponentTransfer></filter></defs><g id="gf5243d7071_0_79.10"><path fill="#ffd966" d="m547.83203 102.362206l216.34644 0l0 33.732277l-216.34644 0z" fill-rule="evenodd"/><path fill="#37474f" d="m629.37885 114.57022l-10.328125 0l0 -1.625l12.03125 0l0 10.609375l-1.703125 0l0 -0.8125l-10.328125 0l0 -1.640625l10.328125 0l0 -6.53125zm19.140625 0.96875q-3.9375 8.15625 -13.203125 8.609375q-0.375 0.96875 -0.75 0.15625l-0.59375 -1.9375q9.65625 -0.21875 12.984375 -7.9375l1.5625 1.109375zm-10.46875 0q-2.0 -1.859375 -3.78125 -3.046875l1.265625 -1.5625q1.5625 0.96875 3.9375 3.203125l-1.421875 1.40625zm19.371094 1.1875l-7.421875 0l0 -1.640625l15.21875 0l0 1.640625l-6.078125 0l0 0.96875q0 4.671875 -3.34375 7.71875l-1.484375 -1.109375q3.109375 -2.453125 3.109375 -6.609375l0 -0.96875zm-4.75 -4.53125l0 -1.625l9.875 0l0 1.625l-9.875 0zm23.613281 2.078125l6.890625 0l0 1.640625l-6.828125 0l0 1.328125q0 5.5 -4.75 8.3125l-1.546875 -1.1875q4.59375 -2.375 4.59375 -7.125l0 -1.328125l-7.34375 0l0 -1.640625l7.265625 0l0 -4.453125l1.484375 0q0.828125 0.078125 0.234375 0.59375l0 3.859375z" fill-rule="nonzero"/><path fill="#37474f" d="m685.39056 124.148346l0 -15.109375l1.4375 0l4.296875 10.03125l0 -10.03125l1.75 0l0 15.109375l-1.34375 0l-4.34375 -10.3125l0 10.3125l-1.796875 0z" fill-rule="nonzero"/></g><g filter="url(#shadowFilter-gf5243d7071_0_79.11)"><use xlink:href="#gf5243d7071_0_79.11" transform="matrix(1.0 0.0 0.0 1.0 0.0 2.0)"/></g><defs><filter id="shadowFilter-gf5243d7071_0_79.11" filterUnits="userSpaceOnUse"><feGaussianBlur in="SourceAlpha" stdDeviation="2.0" result="blur"/><feComponentTransfer in="blur" color-interpolation-filters="sRGB"><feFuncR type="linear" slope="0" intercept="0.0"/><feFuncG type="linear" slope="0" intercept="0.0"/><feFuncB type="linear" slope="0" intercept="0.0"/><feFuncA type="linear" slope="0.5" intercept="0"/></feComponentTransfer></filter></defs><g id="gf5243d7071_0_79.11"><path fill="#ffd966" d="m557.2493 242.79527l197.51184 0l0 44.535446l-197.51184 0z" fill-rule="evenodd"/><path fill="#37474f" d="m624.79236 264.56113q7.796875 -3.265625 11.8125 -9.20314l1.40625 1.1875153q0.59375 0.453125 -0.515625 0.671875q-1.421875 1.859375 -3.640625 3.78125l0 10.09375l-1.703125 0l0 -8.6875q-2.609375 2.015625 -6.09375 3.640625l-1.265625 -1.484375zm15.441406 4.15625q4.53125 -2.453125 6.53125 -5.5625q-2.078125 -1.265625 -3.640625 -1.9375l0.890625 -1.625q1.640625 0.734375 3.71875 1.921875q1.03125 -2.140625 1.78125 -5.7812653l1.78125 0.59376526q0.515625 0.140625 -0.078125 0.4375q-0.96875 3.71875 -2.0 5.71875q1.78125 1.1875 2.890625 2.078125l-0.96875 1.703125q-1.484375 -1.25 -2.8125 -2.140625q-2.75 3.703125 -6.53125 6.015625l-1.5625 -1.421875zm13.65625 -4.828125l0 -1.625l16.546875 0l0 1.625l-16.546875 0zm33.398438 -2.140625q-3.78125 6.078125 -11.71875 8.609375q-0.234375 0.890625 -0.75 0.078125l-1.03125 -1.640625q8.078125 -1.78125 12.171875 -8.390625l1.328125 1.34375zm-11.421875 2.0q-2.234375 -1.640625 -3.71875 -2.375l1.109375 -1.5625q1.859375 0.96875 3.796875 2.375l-1.1875 1.5625zm2.21875 -4.375q-2.0 -1.421875 -3.703125 -2.375l0.953125 -1.5625153q2.015625 1.1093903 3.796875 2.3750153l-1.046875 1.5625zm6.15625 -5.0468903q1.265625 0.953125 2.53125 2.2968903l-0.96875 0.96875q-1.328125 -1.484375 -2.515625 -2.3750153l0.953125 -0.890625zm-1.78125 1.25q1.265625 1.0468903 2.53125 2.3750153l-0.96875 0.890625q-1.265625 -1.328125 -2.59375 -2.4375l1.03125 -0.82814026z" fill-rule="nonzero"/></g><g filter="url(#shadowFilter-gf5243d7071_0_79.12)"><use xlink:href="#gf5243d7071_0_79.12" transform="matrix(1.0 0.0 0.0 1.0 0.0 2.0)"/></g><defs><filter id="shadowFilter-gf5243d7071_0_79.12" filterUnits="userSpaceOnUse"><feGaussianBlur in="SourceAlpha" stdDeviation="2.0" result="blur"/><feComponentTransfer in="blur" color-interpolation-filters="sRGB"><feFuncR type="linear" slope="0" intercept="0.0"/><feFuncG type="linear" slope="0" intercept="0.0"/><feFuncB type="linear" slope="0" intercept="0.0"/><feFuncA type="linear" slope="0.5" intercept="0"/></feComponentTransfer></filter></defs><g id="gf5243d7071_0_79.12"><path fill="#ffd966" d="m557.2493 178.79527l197.51184 0l0 44.53543l-197.51184 0z" fill-rule="evenodd"/><path fill="#37474f" d="m595.4609 198.40486q0.140625 5.640625 -4.828125 8.765625l-1.265625 -1.40625q4.375 -2.375 4.375 -6.6875l0 -3.1875l1.5625 0q0.671875 0.078125 0.15625 0.515625l0 1.9375q2.671875 -2.015625 4.078125 -3.9375l-12.09375 0.4375l-0.15625 -1.703125l13.515625 -0.375l0.515625 -0.140625l1.109375 1.328125q0.21875 0.296875 -0.375 0.234375q-2.21875 2.890625 -5.34375 5.40625l-1.25 -1.1875zm22.257812 -5.1875q0.59375 0 0.96875 -0.375q0.375 -0.375 0.375 -0.96875q0 -0.59375 -0.375 -0.953125q-0.375 -0.375 -0.96875 -0.375q-0.59375 0 -0.96875 0.375q-0.359375 0.359375 -0.359375 0.953125q0 0.59375 0.359375 0.96875q0.375 0.375 0.96875 0.375zm0 0.734375q-0.890625 0 -1.484375 -0.59375q-0.59375 -0.59375 -0.59375 -1.484375q0 -0.890625 0.59375 -1.484375q0.59375 -0.59375 1.484375 -0.59375q0.890625 0 1.484375 0.59375q0.59375 0.59375 0.59375 1.484375q0 0.890625 -0.59375 1.484375q-0.59375 0.59375 -1.484375 0.59375zm-13.28125 0.96875l0 -1.625l10.984375 0l1.921875 1.40625q-0.359375 8.984375 -10.15625 11.734375l-1.34375 -1.640625q9.28125 -2.15625 9.71875 -9.875l-11.125 0zm27.304688 4.53125q0 5.5625 -5.1875 8.015625l-1.484375 -1.265625q4.890625 -2.21875 4.96875 -6.828125l0 -7.421875l1.5625 0q0.734375 0.15625 0.140625 0.59375l0 6.90625zm-7.640625 1.625l-1.703125 0l0 -8.375l1.625 0q0.75 0.0625 0.078125 0.59375l0 7.78125zm11.207031 -1.1875q3.265625 -3.328125 4.15625 -8.453125l1.859375 0.4375q0.59375 0.15625 -0.15625 0.59375q-0.4375 1.640625 -1.109375 3.203125l10.984375 0l0 1.625l-4.296875 0q-0.671875 5.796875 -5.578125 10.03125l-1.703125 -0.96875q5.125 -4.09375 5.421875 -9.0625l-5.640625 0q-0.96875 1.9375 -2.453125 3.421875l-1.484375 -0.828125zm17.664062 0l0 -1.625l16.546875 0l0 1.625l-16.546875 0zm19.898438 4.90625q8.078125 -1.78125 12.171875 -8.390625l1.328125 1.34375q-3.78125 6.078125 -11.71875 8.609375q-0.234375 0.890625 -0.75 0.078125l-1.03125 -1.640625zm-0.53125 -8.984375q1.859375 0.96875 3.796875 2.375l-1.1875 1.5625q-2.234375 -1.640625 -3.71875 -2.375l1.109375 -1.5625zm2.078125 -4.375q2.015625 1.109375 3.796875 2.375l-1.046875 1.5625q-2.0 -1.421875 -3.703125 -2.375l0.953125 -1.5625zm13.8828125 14.546875l0 -1.40625l7.578125 0l0 -3.125l-7.125 0l0 -1.40625l7.125 0l0 -2.96875l-7.578125 0l0 -1.40625l9.0625 0l0 11.125l-1.484375 0l0 -0.8125l-7.578125 0zm26.496094 -8.609375q-3.9375 8.15625 -13.203125 8.609375q-0.375 0.96875 -0.75 0.15625l-0.59375 -1.9375q9.65625 -0.21875 12.984375 -7.9375l1.5625 1.109375zm-10.46875 0q-2.0 -1.859375 -3.78125 -3.046875l1.265625 -1.5625q1.5625 0.96875 3.9375 3.203125l-1.421875 1.40625z" fill-rule="nonzero"/><path fill="#37474f" d="m716.93353 205.98299l0 -15.109375l1.4375 0l4.296875 10.03125l0 -10.03125l1.75 0l0 15.109375l-1.34375 0l-4.34375 -10.3125l0 10.3125l-1.796875 0z" fill-rule="nonzero"/></g></g></svg>